<svg width="2125" height="5685" viewBox="0 0 2125 5685" fill="none" xmlns="http://www.w3.org/2000/svg">
<path d="M6.01358 4724C4.01358 4779.88 223.514 4841.72 226.514 4898.69C229.514 4955.65 344.413 4998.51 341.413 5090.19C338.413 5181.87 437.413 5070.66 459.913 5156.92C482.413 5243.17 645.014 5218.22 649.014 5312.07C653.014 5405.92 801.014 5570.3 801.514 5678.8H1295.51C1390.18 5662.53 1509.51 5440.21 1517.51 5336.48C1527.51 5206.83 1591.01 5217.68 1595.51 5271.38C1602.51 5354.93 1494.01 5287.12 1517.51 5173.73C1541.01 5060.35 1651.51 5061.98 1651.51 4922.01" stroke="#FC6E35" stroke-width="12"/>
<path d="M1651.5 4924.32C1681 4734.32 1802.5 4767.32 1868 4574.32C1933.5 4381.32 2105.5 4473.32 2117.5 4301.32C2129.5 4129.32 2055 4179.82 2058 4028.32C2061 3876.82 2133 3648.32 1972.5 3621.82C1860.3 3603.3 1782 3549.82 1805.5 3454.82C1857.57 3244.32 1628 3158.32 1518 3176.32" stroke="#FC6E35" stroke-width="12"/>
<path d="M1517.8 3173.5C1461.92 3175.5 1400.08 2956 1343.12 2953C1286.15 2950 1243.3 2835.1 1151.61 2838.1C1059.93 2841.1 1171.14 2742.1 1084.89 2719.6C998.628 2697.1 1023.58 2534.5 929.73 2530.5C835.878 2526.5 671.5 2378.5 563 2378L563 1884C579.275 1789.33 801.592 1670 905.318 1662C1034.98 1652 1024.13 1588.5 970.418 1584C886.873 1577 954.685 1685.5 1068.07 1662C1181.45 1638.5 1179.82 1528 1319.79 1528" stroke="#FC6E35" stroke-width="12"/>
<path d="M1213 1.99988C1223.07 46.1726 1283.06 132.182 1442.45 122.838C1641.69 111.159 1704.95 25.359 1878.69 22.2145M2119 1519C2087.21 1467.79 1991.34 1371.38 1862.17 1395.46C1700.7 1425.56 1534.51 1536.07 1312.62 1527.53" stroke="#FC6E35" stroke-width="10"/>
</svg>
