<svg width="2125" height="3472" viewBox="0 0 2125 3472" fill="none" xmlns="http://www.w3.org/2000/svg">
<path d="M6.01358 2511C4.01358 2566.88 223.514 2628.72 226.514 2685.69C229.514 2742.65 344.413 2785.51 341.413 2877.19C338.413 2968.87 437.413 2857.66 459.913 2943.92C482.413 3030.17 645.014 3005.22 649.014 3099.07C653.014 3192.92 801.014 3357.3 801.514 3465.8H1295.51C1390.18 3449.53 1509.51 3227.21 1517.51 3123.48C1527.51 2993.83 1591.01 3004.68 1595.51 3058.38C1602.51 3141.93 1494.01 3074.12 1517.51 2960.73C1541.01 2847.35 1651.51 2848.98 1651.51 2709.01" stroke="#FC6E35" stroke-width="12"/>
<path d="M1651.5 2711.32C1681 2521.32 1802.5 2554.32 1868 2361.32C1933.5 2168.32 2105.5 2260.32 2117.5 2088.32C2129.5 1916.32 2055 1966.82 2058 1815.32C2061 1663.82 2133 1435.32 1972.5 1408.82C1860.3 1390.3 1782 1336.82 1805.5 1241.82C1857.57 1031.32 1628 945.323 1518 963.323" stroke="#FC6E35" stroke-width="12"/>
<path d="M6 5C50.1728 15.6723 136.182 79.2387 126.839 248.127C115.159 459.237 29.3591 526.271 26.2146 710.367M1523 965C1471.79 931.315 1375.38 829.73 1399.46 692.858C1429.56 521.769 1540.07 345.677 1531.53 110.555" stroke="#FC6E35" stroke-width="10"/>
</svg>
