<svg width="47" height="12" viewBox="0 0 47 12" fill="none" xmlns="http://www.w3.org/2000/svg">
<path d="M4.98938 1.158C5.93205 1.158 6.76738 1.368 7.49538 1.788C8.23271 2.208 8.80205 2.79133 9.20338 3.538C9.61405 4.28467 9.81938 5.13867 9.81938 6.1C9.81938 7.06133 9.61405 7.92 9.20338 8.676C8.80205 9.42267 8.23271 10.006 7.49538 10.426C6.76738 10.846 5.93205 11.056 4.98938 11.056C4.04671 11.056 3.20671 10.846 2.46938 10.426C1.74138 10.006 1.17205 9.42267 0.761381 8.676C0.360048 7.92 0.159381 7.06133 0.159381 6.1C0.159381 5.13867 0.360048 4.28467 0.761381 3.538C1.17205 2.79133 1.74138 2.208 2.46938 1.788C3.20671 1.368 4.04671 1.158 4.98938 1.158ZM4.98938 1.62C4.11205 1.62 3.34671 1.81133 2.69338 2.194C2.04938 2.56733 1.55005 3.09467 1.19538 3.776C0.840715 4.448 0.663381 5.22267 0.663381 6.1C0.663381 6.97733 0.840715 7.75667 1.19538 8.438C1.55005 9.11 2.05405 9.63733 2.70738 10.02C3.36071 10.3933 4.12138 10.58 4.98938 10.58C5.85738 10.58 6.61805 10.3933 7.27138 10.02C7.92472 9.63733 8.42872 9.11 8.78338 8.438C9.13805 7.75667 9.31538 6.97733 9.31538 6.1C9.31538 5.22267 9.13805 4.448 8.78338 3.776C8.42872 3.09467 7.92472 2.56733 7.27138 2.194C6.62738 1.81133 5.86671 1.62 4.98938 1.62ZM4.98938 2.824C4.42938 2.824 3.92071 2.95467 3.46338 3.216C3.00605 3.47733 2.64205 3.85533 2.37138 4.35C2.10071 4.84467 1.96538 5.42333 1.96538 6.086C1.96538 6.758 2.10071 7.34133 2.37138 7.836C2.64205 8.33067 3.00605 8.70867 3.46338 8.97C3.92071 9.23133 4.42938 9.362 4.98938 9.362C5.68005 9.362 6.28205 9.17533 6.79538 8.802C7.31805 8.41933 7.66805 7.906 7.84538 7.262H6.93538C6.78605 7.71 6.54338 8.05067 6.20738 8.284C5.87138 8.51733 5.46538 8.634 4.98938 8.634C4.37338 8.634 3.86005 8.41467 3.44938 7.976C3.04805 7.528 2.84738 6.90267 2.84738 6.1C2.84738 5.29733 3.04805 4.672 3.44938 4.224C3.86005 3.776 4.37338 3.552 4.98938 3.552C5.44672 3.552 5.84805 3.67333 6.19338 3.916C6.54805 4.14933 6.79538 4.49 6.93538 4.938H7.84538C7.66805 4.266 7.32271 3.748 6.80938 3.384C6.29605 3.01067 5.68938 2.824 4.98938 2.824ZM15.1158 10.23C16.8331 8.942 18.1584 7.78933 19.0918 6.772C20.0344 5.74533 20.5058 4.742 20.5058 3.762C20.5058 3.118 20.3424 2.60467 20.0158 2.222C19.6984 1.83 19.1758 1.634 18.4478 1.634C17.7384 1.634 17.1878 1.858 16.7958 2.306C16.4131 2.74467 16.1984 3.33267 16.1518 4.07H15.1998C15.2558 3.034 15.5731 2.23133 16.1518 1.662C16.7398 1.08333 17.5051 0.794 18.4478 0.794C19.3531 0.794 20.0858 1.05067 20.6458 1.564C21.2058 2.068 21.4858 2.78667 21.4858 3.72C21.4858 4.84933 21.0144 5.946 20.0718 7.01C19.1384 8.06467 17.9858 9.096 16.6138 10.104H21.7938V10.93H15.1158V10.23ZM23.3235 5.89C23.3235 4.28467 23.5708 3.03867 24.0655 2.152C24.5601 1.26533 25.4468 0.821999 26.7255 0.821999C28.0041 0.821999 28.8908 1.26533 29.3855 2.152C29.8801 3.03867 30.1275 4.28467 30.1275 5.89C30.1275 7.52333 29.8801 8.788 29.3855 9.684C28.8908 10.58 28.0041 11.028 26.7255 11.028C25.4375 11.028 24.5461 10.58 24.0515 9.684C23.5661 8.788 23.3235 7.52333 23.3235 5.89ZM29.1615 5.89C29.1615 5.022 29.1008 4.28933 28.9795 3.692C28.8581 3.09467 28.6201 2.614 28.2655 2.25C27.9108 1.886 27.3975 1.704 26.7255 1.704C26.0535 1.704 25.5401 1.886 25.1855 2.25C24.8308 2.614 24.5928 3.09467 24.4715 3.692C24.3501 4.28933 24.2895 5.022 24.2895 5.89C24.2895 6.786 24.3501 7.53733 24.4715 8.144C24.5928 8.74133 24.8308 9.222 25.1855 9.586C25.5401 9.95 26.0535 10.132 26.7255 10.132C27.3975 10.132 27.9108 9.95 28.2655 9.586C28.6201 9.222 28.8581 8.74133 28.9795 8.144C29.1008 7.53733 29.1615 6.786 29.1615 5.89ZM31.7544 10.23C33.4718 8.942 34.7971 7.78933 35.7304 6.772C36.6731 5.74533 37.1444 4.742 37.1444 3.762C37.1444 3.118 36.9811 2.60467 36.6544 2.222C36.3371 1.83 35.8144 1.634 35.0864 1.634C34.3771 1.634 33.8264 1.858 33.4344 2.306C33.0518 2.74467 32.8371 3.33267 32.7904 4.07H31.8384C31.8944 3.034 32.2118 2.23133 32.7904 1.662C33.3784 1.08333 34.1438 0.794 35.0864 0.794C35.9918 0.794 36.7244 1.05067 37.2844 1.564C37.8444 2.068 38.1244 2.78667 38.1244 3.72C38.1244 4.84933 37.6531 5.946 36.7104 7.01C35.7771 8.06467 34.6244 9.096 33.2524 10.104H38.4324V10.93H31.7544V10.23ZM39.7661 10.23C41.4835 8.942 42.8088 7.78933 43.7421 6.772C44.6848 5.74533 45.1561 4.742 45.1561 3.762C45.1561 3.118 44.9928 2.60467 44.6661 2.222C44.3488 1.83 43.8261 1.634 43.0981 1.634C42.3888 1.634 41.8381 1.858 41.4461 2.306C41.0635 2.74467 40.8488 3.33267 40.8021 4.07H39.8501C39.9061 3.034 40.2235 2.23133 40.8021 1.662C41.3901 1.08333 42.1555 0.794 43.0981 0.794C44.0035 0.794 44.7361 1.05067 45.2961 1.564C45.8561 2.068 46.1361 2.78667 46.1361 3.72C46.1361 4.84933 45.6648 5.946 44.7221 7.01C43.7888 8.06467 42.6361 9.096 41.2641 10.104H46.4441V10.93H39.7661V10.23Z" fill="#9C9C9C"/>
</svg>
