<svg width="1707" height="1538" viewBox="0 0 1707 1538" fill="none" xmlns="http://www.w3.org/2000/svg">
<path d="M1621.33 1.33316C1618.8 1.99983 1610.4 3.73316 1602.8 5.33316C1595.2 6.93316 1585.6 9.4665 1581.47 10.7998C1577.33 12.2665 1566.8 14.3998 1558 15.4665C1478.53 25.3332 1412.67 53.4665 1365.33 97.9998C1334.53 126.933 1314.67 154.533 1294 196.667C1259.33 267.333 1239.73 354.933 1227.33 495.333C1226.27 507.733 1223.33 548.933 1220.67 586.667C1211.87 717.2 1209.2 748.933 1203.33 797.2C1197.33 845.333 1191.2 880.133 1181.87 918C1173.6 951.867 1171.6 957.867 1168.27 958.4C1166.8 958.667 1159.07 957.6 1151.2 956C1099.6 946 1039.87 940.4 972 939.067C780.267 935.467 545.467 974.667 389.333 1036.27C363.6 1046.4 323.467 1066.53 306.667 1077.47C291.467 1087.47 272.4 1106 268 1115.07C262.133 1127.6 263.067 1139.2 271.067 1149.2C279.2 1159.47 275.867 1159.6 322 1147.2C378.4 1132 489.467 1104.4 530 1095.47C707.2 1056.4 841.067 1044.13 952.667 1056.8C1085.6 1071.73 1186.27 1124.53 1253.2 1214.4C1270.67 1237.73 1294.13 1277.47 1293.07 1282C1292.8 1283.33 1289.73 1281.33 1282.67 1275.2C1270 1264.13 1243.47 1246.4 1225.33 1236.8C1157.87 1201.33 1058.8 1176.13 946.667 1166.13C872.933 1159.47 780.667 1159.6 708 1166.67C589.333 1178 484 1206.67 423.067 1244.27C418 1247.2 411.6 1250.53 408.667 1251.47C389.467 1257.33 375.733 1265.73 363.2 1279.07C352.133 1290.8 345.067 1302.53 340.667 1316.4C324.4 1367.47 345.067 1431.47 392.933 1478.4C424.267 1508.93 460.4 1527.47 502.533 1534.53C525.6 1538.4 530.667 1538.13 556.4 1531.2C595.067 1520.67 621.6 1492 629.333 1452C631.467 1441.33 631.067 1415.6 628.667 1402.8C619.867 1356.4 586.933 1309.07 543.067 1279.6C536.267 1275.07 530.8 1270.67 530.667 1269.87C530.667 1267.87 532.4 1267.47 559.333 1263.47C692.4 1243.73 835.733 1245.33 975.333 1268C1018.67 1275.07 1070.53 1286.27 1071.47 1288.67C1071.87 1289.47 1070 1293.73 1067.33 1298.13C1042 1340.13 1052.93 1406.8 1093.6 1458.27C1126.27 1499.6 1170.53 1526.13 1221.2 1534.53C1244.27 1538.4 1249.33 1538.13 1275.07 1531.2C1311.47 1521.33 1337.47 1494.8 1346.67 1458.13C1350.27 1443.87 1350.27 1417.47 1346.8 1400.67L1344.27 1388.67L1350.8 1377.87C1388.13 1316.13 1400.27 1216.8 1381.87 1125.33C1368.4 1058.67 1341.07 1010.67 1306.53 993.467C1300.4 990.4 1294.93 987.333 1294.27 986.8C1293.73 986.267 1294.53 980.667 1296 974.4C1299.87 958 1303.47 937.067 1306.53 913.333C1313.73 857.067 1316.13 810.933 1318.67 672.667C1321.33 526.933 1324.93 461.467 1334.13 398C1352.13 272 1390.27 191.6 1452 149.467C1467.87 138.667 1475.73 134.533 1493.33 127.6C1510.67 120.8 1532.53 115.6 1553.6 113.2L1568 111.6L1577.2 120.4C1613.6 154.8 1650.13 159.867 1678 134.4C1691.47 122.133 1699.73 105.733 1704.8 80.9332C1707.07 69.8665 1707.07 68.7998 1704.93 57.5998C1700.4 35.5998 1689.33 18.7998 1673.47 10.1332C1659.73 2.6665 1634.27 -1.60017 1621.33 1.33316ZM496.667 1340.67C521.333 1346.93 543.6 1367.33 553.733 1393.07C557.333 1402 557.867 1405.07 557.867 1416.67C558 1427.87 557.467 1431.07 554.933 1436.67C544.133 1460.27 517.067 1466.4 488.667 1451.6C476.8 1445.47 459.333 1427.33 452.933 1414.67C446.133 1400.8 443.467 1389.6 444.4 1377.73C446.533 1349.33 468.8 1333.6 496.667 1340.67ZM1215.33 1340.67C1240.53 1347.07 1263.73 1368.93 1273.07 1395.07C1277.87 1408.27 1278 1426.8 1273.6 1436.67C1262.8 1460.27 1235.73 1466.4 1207.33 1451.6C1195.47 1445.47 1178 1427.33 1171.6 1414.67C1157.33 1385.73 1160.67 1358.67 1180 1345.87C1190.4 1338.93 1202.13 1337.33 1215.33 1340.67Z" fill="#3D96F4"/>
<path d="M363.333 247.6C345.067 248.133 308.133 250.667 288 252.8C158 266.133 71.7334 300.267 30.5334 355.067C15.3334 375.333 6.93335 396.667 2.13335 427.467C-0.666647 445.2 -0.533314 447.333 3.33335 472.8C8.93335 508.533 18.8 538.8 37.3334 576.667C81.2 666.267 170.667 778.4 284.933 886.933C328.8 928.667 373.333 968.267 373.333 965.6C373.333 964.8 357.067 935.867 337.067 901.2L300.933 838.267L304.133 835.6C312.8 828.533 363.867 800.267 392.533 786.667C429.6 769.067 478.133 749.067 484.667 748.8C488.4 748.667 489.333 749.867 500.933 768.667C525.467 808.133 551.867 854.133 577.867 902.667C586.267 918.4 593.867 932.267 594.667 933.333C597.067 936.667 594.933 928.133 585.2 894C572.267 848.533 559.067 807.467 545.067 769.467C538.533 751.467 532.933 735.467 532.8 734C532.667 731.867 535.2 730.667 549.333 726.267C590.133 713.733 670 695.067 672.8 697.467C676.4 700.4 697.6 755.2 716.133 809.333L729.2 847.333V837.733C729.467 812.267 724.4 759.467 718.4 724C716 710.4 714.133 696.933 714.133 694L714 688.667L727.333 686.4C758.8 681.2 845.867 672 863.733 672H870.533L873.2 680.933C876.667 692.667 880.267 708.667 886 736.667L890.667 759.333L889.867 722.667C889.333 702.533 888.933 682.667 888.8 678.667L888.667 671.333L896 670.267C900 669.6 935.867 669.333 975.733 669.6C1015.47 670 1047.6 669.733 1047.07 669.333C1044.67 667.333 1011.33 653.067 994.667 646.933C966.533 636.533 927.333 626.267 894.133 620.667C887.6 619.6 881.733 618 881.2 617.2C880.8 616.4 880 612.267 879.467 608.133C878.267 597.6 866.133 538.4 861.333 520C858.267 508.133 857.867 504.4 859.067 503.2C860.667 501.733 877.867 500.133 926 497.067C940.8 496.133 982.133 495.333 1025.07 495.333C1065.47 495.333 1098.27 495.2 1097.73 495.067C1097.07 494.933 1089.2 493.6 1080 492.133C1014.53 481.6 951.467 475.2 881.333 471.867C861.333 470.933 849.467 469.867 848.4 468.933C847.6 468 844.8 460.133 842.133 451.333C835.733 429.467 819.467 381.733 808.667 352.4C803.733 339.067 800 327.2 800.4 326.133C801.333 324 796.267 323.867 895.333 327.333C975.067 330.267 1104.13 336.133 1160 339.467C1167.73 339.867 1173.73 340 1173.33 339.6C1171.47 337.733 1037.33 313.067 958.533 300.133C736.267 263.467 559.467 246.133 418 246.933C393.867 247.067 369.2 247.333 363.333 247.6ZM710.933 324.933C719.333 334.4 791.2 466.667 789.067 468.667C788.533 469.2 768.133 470.133 743.733 470.8C719.333 471.467 686.133 472.933 670 474C653.867 475.067 639.733 476 638.533 476C637.067 476 632.267 468.667 624.667 454.933C603.2 416.4 579.067 378.667 554 344.667C540.667 326.667 540.933 326.933 541.867 324.667C542.533 322.933 554.267 322.667 625.733 322.667C703.333 322.667 709.067 322.8 710.933 324.933ZM459.733 346.933C478.267 369.467 499.333 396.267 514.133 416.667C531.733 440.533 558.667 480.267 558.667 482.133C558.667 484.133 560 483.867 518.667 489.467C501.467 491.733 473.6 496 456.8 498.8C439.867 501.6 424.933 504 423.333 504C421.2 504 418 499.733 409.333 485.6C386 447.733 358 406.933 329.6 369.333C320.533 357.2 312.667 346.667 312.4 345.733C312 344.8 313.867 343.6 316.933 342.8C332.533 338.8 415.067 328.667 436.933 328.133L444 328L459.733 346.933ZM232 425.067C264.933 458.267 318.4 516.133 321.867 522.267C322.4 523.333 322.4 524.667 321.867 525.333C321.2 525.867 311.733 528.533 300.667 531.2C269.733 538.933 226.4 550.933 192.933 561.333C176.133 566.533 162 570.4 161.333 570C160.267 569.333 152.533 546.933 149.333 535.333C141.467 506.133 139.333 476.8 143.867 455.333C147.467 437.333 156 420.533 167.867 407.733C176.667 398.133 190.133 386.667 192.667 386.667C193.467 386.667 211.067 403.867 232 425.067ZM809.867 509.6C817.067 520.8 853.733 612.133 851.733 614C851.333 614.4 838.133 614.267 822.533 613.733C790.133 612.4 739.733 613.733 714 616.4C704.533 617.467 696 618 695.333 617.733C694.533 617.467 690.8 607.733 686.933 596.133C682.933 584.533 675.6 564.667 670.533 551.867C665.467 539.2 661.867 528.4 662.4 527.867C664.267 526.133 744.133 514.267 790.667 508.8C799.067 507.867 806.4 506.933 806.933 506.8C807.467 506.8 808.8 508 809.867 509.6ZM605.467 558.533C619.867 583.733 640.8 624.933 639.867 625.867C639.333 626.4 630.133 628.533 619.2 630.8C592.533 636.133 555.2 645.2 526.133 653.467C513.067 657.2 501.867 659.733 501.333 659.067C500.667 658.533 497.467 651.867 494.133 644.4C490.8 636.933 481.467 617.467 473.333 601.333C465.333 585.067 458.667 571.333 458.667 570.667C458.667 568.933 463.733 567.6 503.333 558.8C560.267 546 588.4 540.133 592 540.4C594.8 540.667 596.933 543.467 605.467 558.533ZM400.933 620.933C427.2 656.267 441.333 676.4 441.333 678.533C441.333 680.4 442.133 680 406.267 693.333C369.467 707.067 331.2 722.8 288.933 741.6C270.8 749.6 255.2 756 254.267 755.6C250.533 754.133 193.467 647.2 195.467 645.333C198.267 642.933 273.867 619.2 330 603.333C349.867 597.733 367.467 592.667 369.333 592C377.333 589.333 377.333 589.2 400.933 620.933Z" fill="#3D96F4"/>
</svg>
